<svg width="778" height="234" viewBox="0 0 778 234" fill="none" xmlns="http://www.w3.org/2000/svg">
<path d="M176.5 69.0596C148.708 86.5763 119.128 101.515 88.0947 113.534L86.8906 114L88.0947 114.466C119.128 126.485 148.708 141.423 176.5 158.939V227.096C123.53 193.8 64.0928 169.851 0.5 157.564V70.4346C64.0929 58.1476 123.53 34.1991 176.5 0.90332V69.0596Z" fill="#0027FF" stroke="black"/>
<path d="M262.32 169.471H324.96V189.451H237.48V70.6514H262.32V169.471ZM383.243 191.251C373.763 191.251 365.483 189.391 358.403 185.671C351.443 181.951 346.043 176.611 342.203 169.651C338.363 162.691 336.443 154.291 336.443 144.451C336.443 134.611 338.363 126.211 342.203 119.251C346.043 112.291 351.383 106.951 358.223 103.231C365.183 99.5113 373.103 97.6513 381.983 97.6513C391.103 97.6513 398.843 99.5113 405.203 103.231C411.563 106.831 416.423 111.811 419.783 118.171C423.143 124.411 424.823 131.551 424.823 139.591C424.823 141.991 424.763 144.271 424.643 146.431C424.523 148.591 424.343 150.511 424.103 152.191H352.283V135.091H413.303L401.423 139.411C401.423 131.851 399.683 126.031 396.203 121.951C392.843 117.871 388.043 115.831 381.803 115.831C377.243 115.831 373.283 116.911 369.923 119.071C366.683 121.231 364.223 124.471 362.543 128.791C360.863 132.991 360.023 138.331 360.023 144.811C360.023 151.171 360.923 156.451 362.723 160.651C364.643 164.731 367.283 167.791 370.643 169.831C374.123 171.871 378.263 172.891 383.063 172.891C388.343 172.891 392.603 171.871 395.843 169.831C399.083 167.791 401.603 164.971 403.403 161.371L423.023 168.931C421.103 173.611 418.163 177.631 414.203 180.991C410.363 184.351 405.743 186.931 400.343 188.731C395.063 190.411 389.363 191.251 383.243 191.251ZM461.483 99.4514L485.243 138.871L491.903 138.691L527.903 189.451H499.283L474.623 149.131L467.423 148.411L432.683 99.4514H461.483ZM527.363 99.4514L492.623 147.871L485.243 147.331L458.963 189.451H431.063L468.323 138.331L475.343 139.231L499.463 99.4514H527.363ZM556.403 86.4914C551.243 86.4914 547.403 85.4113 544.883 83.2513C542.363 80.9713 541.103 77.6713 541.103 73.3513C541.103 68.9113 542.363 65.6113 544.883 63.4513C547.403 61.1713 551.243 60.0313 556.403 60.0313C561.563 60.0313 565.403 61.1713 567.923 63.4513C570.443 65.6113 571.703 68.9113 571.703 73.3513C571.703 77.6713 570.443 80.9713 567.923 83.2513C565.403 85.4113 561.563 86.4914 556.403 86.4914ZM568.643 99.4514V189.451H543.983V99.4514H568.643ZM626.644 71.9113V160.111C626.644 164.431 627.724 167.611 629.884 169.651C632.164 171.571 635.224 172.531 639.064 172.531C642.064 172.531 644.704 172.111 646.984 171.271C649.264 170.311 651.304 169.051 653.104 167.491L657.064 183.871C654.184 186.151 650.584 187.951 646.264 189.271C641.944 190.591 637.384 191.251 632.584 191.251C626.584 191.251 621.244 190.351 616.564 188.551C612.004 186.751 608.404 183.871 605.764 179.911C603.244 175.951 601.984 170.671 601.984 164.071V78.7514L626.644 71.9113ZM655.444 99.4514V117.811H585.424V99.4514H655.444ZM756.728 99.4514L720.368 195.031C717.488 203.191 714.248 209.671 710.648 214.471C707.168 219.271 703.088 222.751 698.408 224.911C693.848 227.071 688.388 228.151 682.028 228.151C677.348 228.151 673.028 227.551 669.068 226.351C665.228 225.271 661.868 223.831 658.988 222.031L664.208 204.211C666.488 206.011 668.888 207.271 671.408 207.991C673.928 208.831 676.808 209.251 680.048 209.251C683.408 209.251 686.288 208.531 688.688 207.091C691.208 205.651 693.308 202.771 694.988 198.451L698.048 190.711L688.148 167.311L660.608 99.4514H687.968L705.068 153.451L709.748 171.451L715.328 152.371L731.708 99.4514H756.728Z" fill="black"/>
</svg>
